<svg xmlns="http://www.w3.org/2000/svg" viewBox="0 0 64 64">
  <circle cx="32" cy="32" r="30" fill="#0b6e4f" stroke="#ffb400" stroke-width="3"/>
  <g fill="#f5f7f6" stroke="#16241e" stroke-width="1.5">
    <polygon points="32,16 40,22 37,31 27,31 24,22"/>
    <polygon points="32,16 24,22 17,17 22,10 32,8 42,10 47,17 40,22"/>
    <polygon points="24,22 27,31 18,37 11,30 17,17"/>
    <polygon points="40,22 47,17 53,30 46,37 37,31"/>
    <polygon points="27,31 37,31 40,40 32,46 24,40"/>
    <polygon points="18,37 24,40 22,50 12,48 11,30"/>
    <polygon points="46,37 40,40 42,50 52,48 53,30"/>
    <polygon points="24,40 32,46 40,40 38,54 26,54"/>
  </g>
</svg>
